<svg xmlns="http://www.w3.org/2000/svg" width="141.125" height="74.539"><path data-name="Path 586" d="M49.825 50.987a25.764 25.764 0 004.629-15.6c-.269-6.65-4.717-14.465-13.219-23.226A112.974 112.974 0 0028.889 1.212L27.26.003l-1.629 1.209a112.974 112.974 0 00-12.346 10.949C4.785 20.922.335 28.736.066 35.387a25.76 25.76 0 004.613 15.58 22.364 22.364 0 00-4.122 4.147 2.733 2.733 0 00-.558 1.655v12.115h5.468v-9.921a3.169 3.169 0 01.926-2.244 16.829 16.829 0 011.82-1.573 17.013 17.013 0 015.223-2.643 22.424 22.424 0 01-4.042-4.335 20.364 20.364 0 01-3.865-12.567c.209-5.178 4.23-11.951 11.628-19.586a111.638 111.638 0 0110.1-9.15 111.655 111.655 0 0110.1 9.15c7.4 7.635 11.419 14.408 11.628 19.586a20.37 20.37 0 01-3.876 12.583 22.406 22.406 0 01-4.043 4.329 17.015 17.015 0 015.215 2.653 16.87 16.87 0 011.8 1.555 3.169 3.169 0 01.924 2.242v9.914h5.468V56.763a2.733 2.733 0 00-.558-1.655 22.362 22.362 0 00-4.09-4.121z" fill="#fff"/><path data-name="Path 587" d="M17.657 26.491a50.478 50.478 0 015.84-7.093 3.638 3.638 0 00-.039-5.05l-.371.363a69.045 69.045 0 00-6.342 6.857 3.347 3.347 0 00.912 4.923z" fill="#fff"/><path data-name="Path 588" d="M35.846 55.677a21.5 21.5 0 01-3.288 1.122 19.02 19.02 0 01-4.662.576h-1.262a19.021 19.021 0 01-4.662-.576 21.5 21.5 0 01-3.291-1.123 6.587 6.587 0 00-7.647 1.774l-.032.038a27.355 27.355 0 009.629 4.612 24.491 24.491 0 006 .743h1.262a24.5 24.5 0 006-.742 27.355 27.355 0 009.627-4.611l-.032-.038a6.588 6.588 0 00-7.642-1.775z" fill="#fff"/><path data-name="Path 589" d="M82.498 57.063a3.81 3.81 0 00-1.428-1.061 5.053 5.053 0 00-2.044-.38 4.913 4.913 0 00-2.673.694 5.272 5.272 0 00-1.7 1.664 3.823 3.823 0 00-1.415-1.677 4.262 4.262 0 00-2.463-.681 4.633 4.633 0 00-2.292.577 4.5 4.5 0 00-1.638 1.52h-.209v-1.677h-3.223v12.839h3.432v-6.236a6.027 6.027 0 01.184-1.52 3.967 3.967 0 01.524-1.218 2.652 2.652 0 01.838-.812 2.187 2.187 0 011.153-.3q2.253 0 2.254 2.62v7.468h3.432v-6.236a5.665 5.665 0 01.2-1.52 4.011 4.011 0 01.55-1.218 2.684 2.684 0 01.878-.812 2.376 2.376 0 011.205-.3q2.148 0 2.148 2.62v7.468h3.432v-8.1a7.2 7.2 0 00-.288-2.083 4.649 4.649 0 00-.857-1.639z" fill="#fff"/><path data-name="Path 590" d="M96.06 57.024a6.642 6.642 0 00-4.559-1.4 6.75 6.75 0 00-5.582 2.568l2.489 1.7a3.77 3.77 0 013.014-1.493 3.071 3.071 0 012.017.668 2.1 2.1 0 01.813 1.69v.393a10.1 10.1 0 00-1.336-.406 9.022 9.022 0 00-2.07-.2 6.9 6.9 0 00-2.083.3 4.977 4.977 0 00-1.664.878 4.086 4.086 0 00-1.1 1.376 4.018 4.018 0 00-.394 1.795 4.267 4.267 0 00.367 1.782 4.041 4.041 0 001.021 1.389 4.871 4.871 0 001.533.9 5.318 5.318 0 001.874.327 4.119 4.119 0 002.188-.524 5.791 5.791 0 001.455-1.258h.209v1.363h3.38v-7.7a5.277 5.277 0 00-1.572-4.148zm-2.031 7.756a2.883 2.883 0 01-.629.943 3.121 3.121 0 01-.982.655 3.137 3.137 0 01-1.258.249 2.431 2.431 0 01-1.48-.472 1.482 1.482 0 01-.642-1.258 1.638 1.638 0 01.668-1.323 2.965 2.965 0 011.9-.537 5.459 5.459 0 011.4.17 7.145 7.145 0 011.245.459 2.879 2.879 0 01-.222 1.114z" fill="#fff"/><path data-name="Path 591" d="M106.067 63.822h-.184l-3.249-7.782h-3.908l5.4 12.21-2.856 6.288h3.694l8.044-18.5h-3.826z" fill="#fff"/><path data-name="Path 592" d="M124.776 57.548a5.616 5.616 0 00-2.018-1.415 6.989 6.989 0 00-2.751-.511 6.449 6.449 0 00-2.686.55 6.712 6.712 0 00-2.109 1.48 6.707 6.707 0 00-1.389 2.175 7.023 7.023 0 00-.5 2.633 7.139 7.139 0 00.511 2.738 6.52 6.52 0 001.428 2.162 6.519 6.519 0 002.162 1.428 7.065 7.065 0 002.711.511 6.667 6.667 0 003.682-.969 7.194 7.194 0 002.4-2.542l-2.856-1.415a3.922 3.922 0 01-1.218 1.349 3.343 3.343 0 01-1.952.537 4.132 4.132 0 01-1.179-.17 3.148 3.148 0 01-1.061-.55 3.26 3.26 0 01-.812-.943 3.6 3.6 0 01-.432-1.35h9.668a1.5 1.5 0 01.026-.288 1.706 1.706 0 01.027-.288v-.314a8.25 8.25 0 00-.419-2.673 6.094 6.094 0 00-1.233-2.135zm-7.887 3.262a3.32 3.32 0 011.179-1.755 3.145 3.145 0 011.939-.629 3.489 3.489 0 011.35.236 3.031 3.031 0 01.943.6 2.682 2.682 0 01.576.786 2.231 2.231 0 01.223.76z" fill="#fff"/><path data-name="Path 593" d="M140.705 59.683a6.085 6.085 0 00-1.231-2.135 5.618 5.618 0 00-2.017-1.415 7 7 0 00-2.751-.511 6.448 6.448 0 00-2.686.55 6.712 6.712 0 00-2.109 1.48 6.715 6.715 0 00-1.389 2.175 7.023 7.023 0 00-.5 2.633 7.148 7.148 0 00.511 2.738 6.521 6.521 0 001.428 2.162 6.522 6.522 0 002.162 1.428 7.068 7.068 0 002.712.511 6.668 6.668 0 003.682-.969 7.194 7.194 0 002.4-2.542l-2.856-1.415a3.917 3.917 0 01-1.218 1.349 3.341 3.341 0 01-1.952.537 4.134 4.134 0 01-1.179-.17 3.146 3.146 0 01-1.061-.55 3.26 3.26 0 01-.812-.943 3.6 3.6 0 01-.432-1.35h9.668a1.465 1.465 0 01.026-.288 1.706 1.706 0 01.027-.288v-.314a8.237 8.237 0 00-.423-2.673zm-9.118 1.127a3.32 3.32 0 011.179-1.755 3.143 3.143 0 011.939-.629 3.483 3.483 0 011.349.236 3.019 3.019 0 01.943.6 2.683 2.683 0 01.577.786 2.231 2.231 0 01.223.76z" fill="#fff"/></svg>