<svg xmlns="http://www.w3.org/2000/svg" width="37" height="37" viewBox="0 0 37 37">
  <g id="icn" transform="translate(-1284 -32)">
    <circle id="Oval" cx="18.5" cy="18.5" r="18.5" transform="translate(1284 32)" fill="#fff"/>
    <g id="icn-2" data-name="icn" transform="translate(1291 39)">
      <path id="Path_596" data-name="Path 596" d="M0,0H24V24H0Z" fill="none"/>
      <path id="Path_597" data-name="Path 597" d="M20,15.5a11.36,11.36,0,0,1-3.57-.57,1.021,1.021,0,0,0-1.02.24l-2.2,2.2a15.045,15.045,0,0,1-6.59-6.59l2.2-2.21a.96.96,0,0,0,.25-1A11.36,11.36,0,0,1,8.5,4a1,1,0,0,0-1-1H4A1,1,0,0,0,3,4,17,17,0,0,0,20,21a1,1,0,0,0,1-1V16.5A1,1,0,0,0,20,15.5Z" fill="#2490b7"/>
    </g>
  </g>
</svg>
