<svg id="logo" xmlns="http://www.w3.org/2000/svg" width="141.125" height="74.539" viewBox="0 0 141.125 74.539">
  <path id="Path_586" data-name="Path 586" d="M2736.383-764.476a25.764,25.764,0,0,0,4.629-15.6c-.269-6.65-4.717-14.465-13.219-23.226a112.974,112.974,0,0,0-12.346-10.949l-1.629-1.209-1.629,1.209a112.974,112.974,0,0,0-12.346,10.949c-8.5,8.761-12.95,16.575-13.219,23.226a25.76,25.76,0,0,0,4.613,15.58,22.364,22.364,0,0,0-4.122,4.147h0a2.733,2.733,0,0,0-.558,1.655v12.115h5.468V-756.5a3.169,3.169,0,0,1,.926-2.244,16.829,16.829,0,0,1,1.82-1.573,17.013,17.013,0,0,1,5.223-2.643,22.424,22.424,0,0,1-4.042-4.335,20.364,20.364,0,0,1-3.865-12.567c.209-5.178,4.23-11.951,11.628-19.586a111.638,111.638,0,0,1,10.1-9.15,111.655,111.655,0,0,1,10.1,9.15c7.4,7.635,11.419,14.408,11.628,19.586a20.37,20.37,0,0,1-3.876,12.583,22.406,22.406,0,0,1-4.043,4.329,17.015,17.015,0,0,1,5.215,2.653,16.87,16.87,0,0,1,1.8,1.555,3.169,3.169,0,0,1,.924,2.242v9.914h5.468V-758.7a2.733,2.733,0,0,0-.558-1.655A22.362,22.362,0,0,0,2736.383-764.476Z" transform="translate(-2686.558 815.463)" fill="#fff"/>
  <path id="Path_587" data-name="Path 587" d="M2814.307-690.471a50.478,50.478,0,0,1,5.84-7.093,3.638,3.638,0,0,0-.039-5.05l-.371.363a69.045,69.045,0,0,0-6.342,6.857A3.347,3.347,0,0,0,2814.307-690.471Z" transform="translate(-2796.65 716.962)" fill="#fff"/>
  <path id="Path_588" data-name="Path 588" d="M2797.9-381.357a21.5,21.5,0,0,1-3.288,1.122,19.02,19.02,0,0,1-4.662.576h-1.262a19.021,19.021,0,0,1-4.662-.576,21.5,21.5,0,0,1-3.291-1.123,6.587,6.587,0,0,0-7.647,1.774l-.032.038a27.355,27.355,0,0,0,9.629,4.612,24.491,24.491,0,0,0,6,.743h1.262a24.5,24.5,0,0,0,6-.742,27.355,27.355,0,0,0,9.627-4.611l-.032-.038A6.588,6.588,0,0,0,2797.9-381.357Z" transform="translate(-2762.054 437.034)" fill="#fff"/>
  <path id="Path_589" data-name="Path 589" d="M3204.324-376.591a3.81,3.81,0,0,0-1.428-1.061,5.053,5.053,0,0,0-2.044-.38,4.913,4.913,0,0,0-2.673.694,5.272,5.272,0,0,0-1.7,1.664,3.823,3.823,0,0,0-1.415-1.677,4.262,4.262,0,0,0-2.463-.681,4.633,4.633,0,0,0-2.292.577,4.5,4.5,0,0,0-1.638,1.52h-.209v-1.677h-3.223v12.839h3.432v-6.236a6.027,6.027,0,0,1,.184-1.52,3.967,3.967,0,0,1,.524-1.218,2.652,2.652,0,0,1,.838-.812,2.187,2.187,0,0,1,1.153-.3q2.253,0,2.254,2.62v7.468h3.432v-6.236a5.665,5.665,0,0,1,.2-1.52,4.011,4.011,0,0,1,.55-1.218,2.684,2.684,0,0,1,.878-.812,2.376,2.376,0,0,1,1.205-.3q2.148,0,2.148,2.62v7.468h3.432v-8.1a7.2,7.2,0,0,0-.288-2.083A4.649,4.649,0,0,0,3204.324-376.591Z" transform="translate(-3121.826 433.654)" fill="#fff"/>
  <path id="Path_590" data-name="Path 590" d="M3370.225-376.63a6.642,6.642,0,0,0-4.559-1.4,6.75,6.75,0,0,0-5.582,2.568l2.489,1.7a3.77,3.77,0,0,1,3.014-1.493,3.071,3.071,0,0,1,2.017.668,2.1,2.1,0,0,1,.813,1.69v.393a10.1,10.1,0,0,0-1.336-.406,9.022,9.022,0,0,0-2.07-.2,6.9,6.9,0,0,0-2.083.3,4.977,4.977,0,0,0-1.664.878,4.086,4.086,0,0,0-1.1,1.376,4.018,4.018,0,0,0-.394,1.795,4.267,4.267,0,0,0,.367,1.782,4.041,4.041,0,0,0,1.021,1.389,4.871,4.871,0,0,0,1.533.9,5.318,5.318,0,0,0,1.874.327,4.119,4.119,0,0,0,2.188-.524,5.791,5.791,0,0,0,1.455-1.258h.209v1.363h3.38v-7.7A5.277,5.277,0,0,0,3370.225-376.63Zm-2.031,7.756a2.883,2.883,0,0,1-.629.943,3.121,3.121,0,0,1-.982.655,3.137,3.137,0,0,1-1.258.249,2.431,2.431,0,0,1-1.48-.472,1.482,1.482,0,0,1-.642-1.258,1.638,1.638,0,0,1,.668-1.323,2.965,2.965,0,0,1,1.9-.537,5.459,5.459,0,0,1,1.4.17,7.145,7.145,0,0,1,1.245.459A2.879,2.879,0,0,1,3368.194-368.874Z" transform="translate(-3274.165 433.654)" fill="#fff"/>
  <path id="Path_591" data-name="Path 591" d="M3470.341-366.953h-.184l-3.249-7.782H3463l5.4,12.21-2.856,6.288h3.694l8.044-18.5h-3.826Z" transform="translate(-3364.274 430.775)" fill="#fff"/>
  <path id="Path_592" data-name="Path 592" d="M3589.231-376.106a5.616,5.616,0,0,0-2.018-1.415,6.989,6.989,0,0,0-2.751-.511,6.449,6.449,0,0,0-2.686.55,6.712,6.712,0,0,0-2.109,1.48,6.707,6.707,0,0,0-1.389,2.175,7.023,7.023,0,0,0-.5,2.633,7.139,7.139,0,0,0,.511,2.738,6.52,6.52,0,0,0,1.428,2.162,6.519,6.519,0,0,0,2.162,1.428,7.065,7.065,0,0,0,2.711.511,6.667,6.667,0,0,0,3.682-.969,7.194,7.194,0,0,0,2.4-2.542l-2.856-1.415a3.922,3.922,0,0,1-1.218,1.349,3.343,3.343,0,0,1-1.952.537,4.132,4.132,0,0,1-1.179-.17,3.148,3.148,0,0,1-1.061-.55,3.26,3.26,0,0,1-.812-.943,3.6,3.6,0,0,1-.432-1.35h9.668a1.5,1.5,0,0,1,.026-.288,1.706,1.706,0,0,1,.027-.288v-.314a8.25,8.25,0,0,0-.419-2.673A6.094,6.094,0,0,0,3589.231-376.106Zm-7.887,3.262a3.32,3.32,0,0,1,1.179-1.755,3.145,3.145,0,0,1,1.939-.629,3.489,3.489,0,0,1,1.35.236,3.031,3.031,0,0,1,.943.6,2.682,2.682,0,0,1,.576.786,2.231,2.231,0,0,1,.223.76Z" transform="translate(-3464.455 433.654)" fill="#fff"/>
  <path id="Path_593" data-name="Path 593" d="M3706.061-373.971a6.085,6.085,0,0,0-1.231-2.135,5.618,5.618,0,0,0-2.017-1.415,7,7,0,0,0-2.751-.511,6.448,6.448,0,0,0-2.686.55,6.712,6.712,0,0,0-2.109,1.48,6.715,6.715,0,0,0-1.389,2.175,7.023,7.023,0,0,0-.5,2.633,7.148,7.148,0,0,0,.511,2.738,6.521,6.521,0,0,0,1.428,2.162,6.522,6.522,0,0,0,2.162,1.428,7.068,7.068,0,0,0,2.712.511,6.668,6.668,0,0,0,3.682-.969,7.194,7.194,0,0,0,2.4-2.542l-2.856-1.415a3.917,3.917,0,0,1-1.218,1.349,3.341,3.341,0,0,1-1.952.537,4.134,4.134,0,0,1-1.179-.17,3.146,3.146,0,0,1-1.061-.55,3.26,3.26,0,0,1-.812-.943,3.6,3.6,0,0,1-.432-1.35h9.668a1.465,1.465,0,0,1,.026-.288,1.706,1.706,0,0,1,.027-.288v-.314A8.237,8.237,0,0,0,3706.061-373.971Zm-9.118,1.127a3.32,3.32,0,0,1,1.179-1.755,3.143,3.143,0,0,1,1.939-.629,3.483,3.483,0,0,1,1.349.236,3.019,3.019,0,0,1,.943.6,2.683,2.683,0,0,1,.577.786,2.231,2.231,0,0,1,.223.76Z" transform="translate(-3565.356 433.654)" fill="#fff"/>
</svg>
